<?xml version="1.0" standalone="no"?>
<!DOCTYPE svg PUBLIC "-//W3C//DTD SVG 20010904//EN"
 "http://www.w3.org/TR/2001/REC-SVG-20010904/DTD/svg10.dtd">
<svg version="1.0" xmlns="http://www.w3.org/2000/svg"
 width="80.000000pt" height="80.000000pt" viewBox="0 0 1074.000000 1065.000000"
 preserveAspectRatio="xMidYMid meet">

<g transform="translate(0.000000,1065.000000) scale(0.100000,-0.100000)"
fill="#6C584C" stroke="none">
<path d="M5260 10514 c-134 -28 -199 -71 -378 -248 l-163 -160 -147 147 c-81
81 -154 147 -163 147 -19 0 -49 -31 -49 -51 0 -7 66 -80 147 -161 l148 -148
-148 -147 -147 -148 -148 148 c-81 81 -154 147 -163 147 -19 0 -49 -31 -49
-51 0 -7 66 -80 147 -161 l148 -148 -143 -142 -142 -143 -148 148 c-81 81
-154 147 -163 147 -19 0 -49 -31 -49 -51 0 -7 66 -80 147 -161 l148 -148 -115
-115 c-63 -63 -119 -115 -125 -115 -6 0 -73 63 -150 140 -77 77 -147 140 -156
140 -19 0 -49 -31 -49 -51 0 -8 63 -77 140 -154 77 -77 140 -144 140 -150 0
-6 -63 -73 -140 -150 l-140 -140 -148 148 c-81 81 -154 147 -163 147 -19 0
-49 -31 -49 -51 0 -7 66 -80 147 -161 l148 -148 -140 -140 c-77 -77 -144 -140
-150 -140 -6 0 -73 63 -150 140 -77 77 -147 140 -156 140 -19 0 -49 -31 -49
-51 0 -8 63 -77 140 -154 77 -77 140 -144 140 -150 0 -6 -63 -73 -140 -150
l-140 -140 -148 148 c-81 81 -154 147 -163 147 -19 0 -49 -31 -49 -51 0 -7 66
-80 147 -161 l148 -148 -140 -140 c-77 -77 -144 -140 -150 -140 -6 0 -73 63
-150 140 -77 77 -147 140 -156 140 -19 0 -49 -31 -49 -51 0 -8 63 -77 140
-154 77 -77 140 -144 140 -150 0 -6 -63 -73 -140 -150 l-140 -140 -148 148
c-81 81 -154 147 -163 147 -19 0 -49 -31 -49 -51 0 -7 66 -80 147 -161 l148
-148 -115 -115 c-63 -63 -119 -115 -125 -115 -6 0 -73 63 -150 140 -77 77
-147 140 -156 140 -19 0 -49 -31 -49 -51 0 -8 63 -77 140 -154 77 -77 140
-144 140 -150 0 -6 -63 -73 -140 -150 l-140 -140 -148 148 c-81 81 -154 147
-163 147 -19 0 -49 -31 -49 -51 0 -7 66 -80 147 -161 l148 -148 -140 -140
c-77 -77 -144 -140 -150 -140 -6 0 -73 63 -150 140 -77 77 -147 140 -156 140
-19 0 -49 -31 -49 -51 0 -8 63 -77 140 -154 77 -77 140 -144 140 -150 0 -6
-63 -73 -140 -150 l-140 -140 -148 148 c-81 81 -154 147 -163 147 -19 0 -49
-31 -49 -51 0 -7 66 -80 147 -161 l147 -147 -115 -118 c-130 -132 -177 -212
-204 -338 -18 -88 -18 -142 0 -230 26 -124 75 -206 199 -333 l110 -113 -172
-172 c-95 -95 -172 -179 -172 -188 0 -19 31 -49 51 -49 7 0 91 78 186 172
l173 173 140 -140 c77 -77 140 -144 140 -150 0 -6 -77 -87 -170 -180 -94 -93
-170 -177 -170 -186 0 -19 31 -49 51 -49 8 0 91 76 184 170 93 93 174 170 180
170 6 0 73 -63 150 -140 l140 -140 -173 -173 c-94 -95 -172 -179 -172 -188 0
-19 31 -49 51 -49 7 0 91 78 186 172 l173 173 115 -115 c63 -63 115 -119 115
-125 0 -6 -77 -87 -170 -180 -94 -93 -170 -177 -170 -186 0 -19 31 -49 51 -49
8 0 91 76 184 170 93 93 174 170 180 170 13 0 275 -262 275 -275 0 -6 -77 -87
-170 -180 -94 -93 -170 -177 -170 -186 0 -19 31 -49 51 -49 8 0 91 76 184 170
93 93 174 170 180 170 13 0 285 -272 285 -285 0 -6 -77 -87 -170 -180 -94 -93
-170 -177 -170 -186 0 -19 31 -49 51 -49 8 0 91 76 184 170 93 93 174 170 180
170 13 0 275 -262 275 -275 0 -6 -77 -87 -170 -180 -94 -93 -170 -177 -170
-186 0 -19 31 -49 51 -49 8 0 91 76 184 170 93 93 174 170 180 170 13 0 285
-272 285 -285 0 -6 -77 -87 -170 -180 -94 -93 -170 -177 -170 -186 0 -19 31
-49 51 -49 8 0 91 76 184 170 93 93 174 170 180 170 13 0 275 -262 275 -275 0
-6 -77 -87 -170 -180 -94 -93 -170 -177 -170 -186 0 -19 31 -49 51 -49 8 0 91
76 184 170 93 93 174 170 180 170 6 0 62 -52 125 -115 l115 -115 -173 -173
c-94 -95 -172 -179 -172 -188 0 -19 31 -49 51 -49 7 0 91 78 186 172 l173 173
140 -140 c77 -77 140 -144 140 -150 0 -6 -77 -87 -170 -180 -94 -93 -170 -177
-170 -186 0 -19 31 -49 51 -49 8 0 91 76 184 170 93 93 174 170 180 170 6 0
73 -63 150 -140 l140 -140 -173 -173 c-94 -95 -172 -179 -172 -188 0 -19 31
-49 51 -49 7 0 91 78 186 172 l173 173 140 -140 c77 -77 140 -144 140 -150 0
-6 -77 -87 -170 -180 -94 -93 -170 -177 -170 -186 0 -19 31 -49 51 -49 8 0 91
76 184 170 93 93 174 170 179 170 6 0 84 -74 175 -163 184 -182 247 -223 386
-252 130 -27 247 -11 375 51 65 32 98 60 246 206 93 92 174 168 180 168 5 0
88 -79 184 -175 96 -96 182 -175 191 -175 19 0 49 31 49 51 0 8 -79 93 -175
189 -96 96 -175 179 -175 185 0 6 63 73 140 150 l140 140 178 -178 c97 -97
184 -177 193 -177 19 0 49 31 49 51 0 7 -80 94 -177 191 l-178 178 140 140
c77 77 144 140 150 140 6 0 89 -79 185 -175 96 -96 182 -175 191 -175 19 0 49
31 49 51 0 8 -79 93 -175 189 -96 96 -175 179 -175 185 0 13 212 225 225 225
6 0 89 -79 185 -175 96 -96 182 -175 191 -175 19 0 49 31 49 51 0 8 -79 93
-175 189 -96 96 -175 179 -175 185 0 13 272 285 285 285 6 0 89 -79 185 -175
96 -96 182 -175 191 -175 19 0 49 31 49 51 0 8 -79 93 -175 189 -96 96 -175
179 -175 185 0 13 262 275 275 275 6 0 89 -79 185 -175 96 -96 182 -175 191
-175 19 0 49 31 49 51 0 8 -79 93 -175 189 -96 96 -175 179 -175 185 0 13 272
285 285 285 6 0 89 -79 185 -175 96 -96 182 -175 191 -175 19 0 49 31 49 51 0
8 -79 93 -175 189 -96 96 -175 179 -175 185 0 13 262 275 275 275 6 0 89 -79
185 -175 96 -96 182 -175 191 -175 19 0 49 31 49 51 0 8 -79 93 -175 189 -96
96 -175 179 -175 185 0 13 272 285 285 285 6 0 89 -79 185 -175 96 -96 182
-175 191 -175 19 0 49 31 49 51 0 8 -79 93 -175 189 -96 96 -175 179 -175 185
0 13 212 225 225 225 6 0 89 -79 185 -175 96 -96 182 -175 191 -175 19 0 49
31 49 51 0 8 -79 93 -175 189 -96 96 -175 179 -175 185 0 6 63 73 140 150
l140 140 178 -178 c97 -97 184 -177 193 -177 19 0 49 31 49 51 0 7 -80 94
-177 191 l-178 178 140 140 c77 77 144 140 150 140 6 0 89 -79 185 -175 96
-96 182 -175 191 -175 19 0 49 31 49 51 0 8 -79 93 -175 189 -96 96 -175 179
-175 185 0 6 63 73 140 150 l140 140 178 -178 c97 -97 184 -177 193 -177 19 0
49 31 49 51 0 7 -80 94 -177 191 l-177 177 105 108 c119 122 168 205 194 328
27 130 11 247 -52 375 -29 61 -59 99 -160 201 -68 69 -123 130 -123 135 0 5
74 83 165 174 91 91 165 172 165 181 0 19 -31 49 -51 49 -8 0 -88 -74 -179
-165 -91 -91 -169 -165 -175 -165 -6 0 -73 63 -150 140 l-140 140 168 168 c92
92 167 174 167 183 0 19 -31 49 -51 49 -7 0 -89 -75 -181 -167 l-168 -168
-140 140 c-77 77 -140 144 -140 150 0 6 74 84 165 175 91 91 165 172 165 181
0 19 -31 49 -51 49 -8 0 -88 -74 -179 -165 -91 -91 -169 -165 -175 -165 -13 0
-225 212 -225 225 0 6 74 84 165 175 91 91 165 172 165 181 0 19 -31 49 -51
49 -8 0 -88 -74 -179 -165 -91 -91 -169 -165 -175 -165 -13 0 -285 272 -285
285 0 6 74 84 165 175 91 91 165 172 165 181 0 19 -31 49 -51 49 -8 0 -88 -74
-179 -165 -91 -91 -169 -165 -175 -165 -13 0 -275 262 -275 275 0 6 74 84 165
175 91 91 165 172 165 181 0 19 -31 49 -51 49 -8 0 -88 -74 -179 -165 -91 -91
-169 -165 -175 -165 -13 0 -285 272 -285 285 0 6 74 84 165 175 91 91 165 172
165 181 0 19 -31 49 -51 49 -8 0 -88 -74 -179 -165 -91 -91 -169 -165 -175
-165 -13 0 -275 262 -275 275 0 6 74 84 165 175 91 91 165 172 165 181 0 19
-31 49 -51 49 -8 0 -88 -74 -179 -165 -91 -91 -169 -165 -175 -165 -13 0 -285
272 -285 285 0 6 74 84 165 175 91 91 165 172 165 181 0 19 -31 49 -51 49 -8
0 -88 -74 -179 -165 -91 -91 -169 -165 -175 -165 -13 0 -225 212 -225 225 0 6
74 84 165 175 91 91 165 172 165 181 0 19 -31 49 -51 49 -8 0 -88 -74 -179
-165 -91 -91 -169 -165 -175 -165 -6 0 -73 63 -150 140 l-140 140 168 168 c92
92 167 174 167 183 0 19 -31 49 -51 49 -7 0 -89 -75 -181 -167 l-168 -168
-140 140 c-77 77 -140 144 -140 150 0 6 74 84 165 175 91 91 165 172 165 181
0 19 -31 49 -51 49 -8 0 -88 -74 -179 -165 -91 -91 -169 -165 -175 -165 -6 0
-73 63 -150 140 l-140 140 168 168 c92 92 167 174 167 183 0 19 -31 49 -51 49
-7 0 -89 -75 -181 -167 l-167 -167 -153 150 c-129 128 -165 156 -228 188 -128
62 -250 78 -380 50z m291 -169 c61 -27 162 -126 2442 -2404 2305 -2303 2379
-2378 2415 -2450 36 -72 37 -79 37 -181 0 -102 -1 -109 -37 -181 -36 -72 -110
-147 -2415 -2450 -2272 -2270 -2381 -2377 -2443 -2405 -58 -26 -76 -29 -170
-29 -94 0 -112 3 -170 29 -62 28 -171 135 -2443 2405 -2305 2303 -2379 2378
-2415 2450 -36 72 -37 79 -37 180 0 95 3 113 29 171 28 62 138 174 2405 2442
2491 2493 2415 2419 2527 2448 22 5 78 8 125 6 67 -3 100 -9 150 -31z"/>
<path d="M5260 9605 c-36 -8 -99 -31 -140 -51 -73 -35 -117 -78 -2017 -1977
-1519 -1519 -1949 -1953 -1977 -2001 -103 -173 -110 -370 -20 -556 36 -73 77
-116 1977 -2017 1519 -1519 1953 -1949 2001 -1977 173 -103 370 -110 556 -20
73 36 116 77 2017 1977 1519 1519 1949 1953 1977 2001 103 173 110 370 20 556
-36 73 -77 116 -1977 2017 -1519 1519 -1953 1949 -2001 1977 -123 73 -285 101
-416 71z m303 -178 c69 -34 160 -124 2008 -1974 1846 -1848 1937 -1941 1965
-2003 26 -58 29 -76 29 -171 0 -101 -1 -108 -37 -180 -35 -71 -76 -113 -891
-927 l-854 -854 -99 65 c-653 427 -1378 661 -2142 693 -156 7 -162 8 -146 25
15 17 15 26 -2 121 -23 123 -25 359 -5 488 79 519 361 843 831 954 118 28 263
46 371 46 98 0 136 34 92 82 -19 21 -73 23 -238 8 -129 -13 -228 -32 -343 -67
-46 -13 -85 -23 -88 -21 -8 9 38 156 71 223 87 181 232 315 430 396 135 56
260 79 466 86 469 16 847 -94 1118 -324 42 -36 40 -50 -28 -153 -155 -236
-415 -453 -737 -614 -241 -121 -438 -172 -634 -163 -164 7 -295 53 -400 138
-52 43 -100 35 -100 -17 0 -53 164 -154 316 -195 61 -17 109 -22 214 -23 209
-1 374 41 615 158 318 153 584 360 753 585 63 84 142 226 142 257 0 8 -25 42
-56 74 -235 247 -720 397 -1214 376 -317 -13 -543 -85 -728 -231 -171 -136
-299 -363 -328 -582 -5 -38 -11 -54 -25 -58 -46 -15 -181 -115 -255 -189 -190
-190 -296 -425 -349 -780 -6 -38 -7 -37 -74 100 -74 150 -160 287 -249 397
-32 38 -65 79 -76 92 -18 23 -18 24 8 57 33 44 90 169 105 230 52 217 -7 456
-170 688 -65 92 -227 261 -332 345 -261 209 -610 287 -973 216 -199 -39 -476
-148 -638 -251 l-49 -32 7 -71 c18 -192 101 -494 184 -669 153 -319 414 -549
738 -651 150 -47 348 -59 443 -26 43 15 53 55 21 81 -14 11 -30 16 -39 12 -9
-3 -61 -9 -116 -11 -248 -12 -513 99 -721 302 -154 150 -266 350 -340 607 -39
136 -79 349 -71 372 9 24 275 150 399 190 187 59 263 71 448 71 183 -1 277
-18 411 -75 223 -95 490 -346 627 -590 80 -142 111 -333 78 -473 -17 -74 -54
-160 -87 -201 l-20 -26 -90 77 c-221 190 -490 347 -756 439 -50 18 -52 18 -72
0 -25 -22 -27 -49 -6 -66 8 -7 70 -35 138 -62 596 -240 1022 -686 1221 -1281
24 -72 38 -139 46 -213 6 -60 15 -124 20 -141 4 -18 5 -33 2 -33 -41 -1 -308
-22 -377 -31 -636 -76 -1287 -303 -1836 -639 l-126 -78 -855 857 c-984 986
-913 900 -913 1091 0 94 3 112 29 170 28 62 119 155 1965 2002 2029 2031 1975
1979 2087 2008 22 5 79 8 127 6 77 -3 97 -8 160 -39z m297 -5471 c636 -82
1219 -296 1754 -643 l99 -65 -1039 -1039 c-995 -996 -1042 -1041 -1113 -1077
-72 -36 -79 -37 -181 -37 -102 0 -109 1 -181 37 -71 36 -118 81 -1119 1082
-990 991 -1043 1046 -1025 1060 46 34 234 142 367 211 515 265 1083 431 1663
484 151 14 627 6 775 -13z"/>
</g>
</svg>
